G04 PROTEUS RS274X GERBER FILE*
%FSLAX45Y45*%
%MOMM*%
G01*
%ADD18C,0.203200*%
%ADD19C,0.127000*%
%ADD70C,0.063500*%
D18*
X-3746500Y-635000D02*
X-3746500Y-762000D01*
X-3810000Y-698500D02*
X-3683000Y-698500D01*
X-3341000Y+400500D02*
X-3341000Y+273500D01*
X-3404500Y+337000D02*
X-3277500Y+337000D01*
X-3385901Y+381901D02*
X-3296099Y+292099D01*
X-3385901Y+292099D02*
X-3296099Y+381901D01*
X-3087000Y+400500D02*
X-3087000Y+273500D01*
X-3150500Y+337000D02*
X-3023500Y+337000D01*
X-3131901Y+381901D02*
X-3042099Y+292099D01*
X-3131901Y+292099D02*
X-3042099Y+381901D01*
X-2833000Y+400500D02*
X-2833000Y+273500D01*
X-2896500Y+337000D02*
X-2769500Y+337000D01*
X-2877901Y+381901D02*
X-2788099Y+292099D01*
X-2877901Y+292099D02*
X-2788099Y+381901D01*
X-2579000Y+400500D02*
X-2579000Y+273500D01*
X-2642500Y+337000D02*
X-2515500Y+337000D01*
X-2623901Y+381901D02*
X-2534099Y+292099D01*
X-2623901Y+292099D02*
X-2534099Y+381901D01*
X-2579000Y+1162500D02*
X-2579000Y+1035500D01*
X-2642500Y+1099000D02*
X-2515500Y+1099000D01*
X-2623901Y+1143901D02*
X-2534099Y+1054099D01*
X-2623901Y+1054099D02*
X-2534099Y+1143901D01*
X-2833000Y+1162500D02*
X-2833000Y+1035500D01*
X-2896500Y+1099000D02*
X-2769500Y+1099000D01*
X-2877901Y+1143901D02*
X-2788099Y+1054099D01*
X-2877901Y+1054099D02*
X-2788099Y+1143901D01*
X-3087000Y+1162500D02*
X-3087000Y+1035500D01*
X-3150500Y+1099000D02*
X-3023500Y+1099000D01*
X-3131901Y+1143901D02*
X-3042099Y+1054099D01*
X-3131901Y+1054099D02*
X-3042099Y+1143901D01*
X-3341000Y+1162500D02*
X-3341000Y+1035500D01*
X-3404500Y+1099000D02*
X-3277500Y+1099000D01*
X-3385901Y+1143901D02*
X-3296099Y+1054099D01*
X-3385901Y+1054099D02*
X-3296099Y+1143901D01*
X-3325000Y-1115500D02*
X-3325000Y-1242500D01*
X-3388500Y-1179000D02*
X-3261500Y-1179000D01*
X-3369901Y-1134099D02*
X-3280099Y-1223901D01*
X-3369901Y-1223901D02*
X-3280099Y-1134099D01*
X-3071000Y-1115500D02*
X-3071000Y-1242500D01*
X-3134500Y-1179000D02*
X-3007500Y-1179000D01*
X-3115901Y-1134099D02*
X-3026099Y-1223901D01*
X-3115901Y-1223901D02*
X-3026099Y-1134099D01*
X-2817000Y-1115500D02*
X-2817000Y-1242500D01*
X-2880500Y-1179000D02*
X-2753500Y-1179000D01*
X-2861901Y-1134099D02*
X-2772099Y-1223901D01*
X-2861901Y-1223901D02*
X-2772099Y-1134099D01*
X-2563000Y-1115500D02*
X-2563000Y-1242500D01*
X-2626500Y-1179000D02*
X-2499500Y-1179000D01*
X-2607901Y-1134099D02*
X-2518099Y-1223901D01*
X-2607901Y-1223901D02*
X-2518099Y-1134099D01*
X-2563000Y-353500D02*
X-2563000Y-480500D01*
X-2626500Y-417000D02*
X-2499500Y-417000D01*
X-2607901Y-372099D02*
X-2518099Y-461901D01*
X-2607901Y-461901D02*
X-2518099Y-372099D01*
X-2817000Y-353500D02*
X-2817000Y-480500D01*
X-2880500Y-417000D02*
X-2753500Y-417000D01*
X-2861901Y-372099D02*
X-2772099Y-461901D01*
X-2861901Y-461901D02*
X-2772099Y-372099D01*
X-3071000Y-353500D02*
X-3071000Y-480500D01*
X-3134500Y-417000D02*
X-3007500Y-417000D01*
X-3115901Y-372099D02*
X-3026099Y-461901D01*
X-3115901Y-461901D02*
X-3026099Y-372099D01*
X-3325000Y-353500D02*
X-3325000Y-480500D01*
X-3388500Y-417000D02*
X-3261500Y-417000D01*
X-3369901Y-372099D02*
X-3280099Y-461901D01*
X-3369901Y-461901D02*
X-3280099Y-372099D01*
X-3500000Y+1563500D02*
X-3500000Y+1436500D01*
X-3563500Y+1500000D02*
X-3436500Y+1500000D01*
X-3544901Y+1544901D02*
X-3455099Y+1455099D01*
X-3544901Y+1455099D02*
X-3455099Y+1544901D01*
X-3500000Y+1817500D02*
X-3500000Y+1690500D01*
X-3563500Y+1754000D02*
X-3436500Y+1754000D01*
X-3544901Y+1798901D02*
X-3455099Y+1709099D01*
X-3544901Y+1709099D02*
X-3455099Y+1798901D01*
X-4230000Y+1401500D02*
X-4230000Y+1274500D01*
X-4293500Y+1338000D02*
X-4166500Y+1338000D01*
X-4274901Y+1382901D02*
X-4185099Y+1293099D01*
X-4274901Y+1293099D02*
X-4185099Y+1382901D01*
X-4230000Y+385500D02*
X-4230000Y+258500D01*
X-4293500Y+322000D02*
X-4166500Y+322000D01*
X-4274901Y+366901D02*
X-4185099Y+277099D01*
X-4274901Y+277099D02*
X-4185099Y+366901D01*
X-1981000Y-166500D02*
X-1981000Y-293500D01*
X-2044500Y-230000D02*
X-1917500Y-230000D01*
X-2025901Y-185099D02*
X-1936099Y-274901D01*
X-2025901Y-274901D02*
X-1936099Y-185099D01*
X-1981000Y-1182500D02*
X-1981000Y-1309500D01*
X-2044500Y-1246000D02*
X-1917500Y-1246000D01*
X-2025901Y-1201099D02*
X-1936099Y-1290901D01*
X-2025901Y-1290901D02*
X-1936099Y-1201099D01*
X-5523000Y+408500D02*
X-5523000Y+281500D01*
X-5586500Y+345000D02*
X-5459500Y+345000D01*
X-5567901Y+389901D02*
X-5478099Y+300099D01*
X-5567901Y+300099D02*
X-5478099Y+389901D01*
X-5904000Y+408500D02*
X-5904000Y+281500D01*
X-5967500Y+345000D02*
X-5840500Y+345000D01*
X-5948901Y+389901D02*
X-5859099Y+300099D01*
X-5948901Y+300099D02*
X-5859099Y+389901D01*
X-4777500Y+1215000D02*
X-4777717Y+1220247D01*
X-4779482Y+1230742D01*
X-4783174Y+1241237D01*
X-4789202Y+1251732D01*
X-4798424Y+1262112D01*
X-4808919Y+1269800D01*
X-4819414Y+1274718D01*
X-4829909Y+1277524D01*
X-4840404Y+1278497D01*
X-4841000Y+1278500D01*
X-4904500Y+1215000D02*
X-4904283Y+1220247D01*
X-4902518Y+1230742D01*
X-4898826Y+1241237D01*
X-4892798Y+1251732D01*
X-4883576Y+1262112D01*
X-4873081Y+1269800D01*
X-4862586Y+1274718D01*
X-4852091Y+1277524D01*
X-4841596Y+1278497D01*
X-4841000Y+1278500D01*
X-4904500Y+1215000D02*
X-4904283Y+1209753D01*
X-4902518Y+1199258D01*
X-4898826Y+1188763D01*
X-4892798Y+1178268D01*
X-4883576Y+1167888D01*
X-4873081Y+1160200D01*
X-4862586Y+1155282D01*
X-4852091Y+1152476D01*
X-4841596Y+1151503D01*
X-4841000Y+1151500D01*
X-4777500Y+1215000D02*
X-4777717Y+1209753D01*
X-4779482Y+1199258D01*
X-4783174Y+1188763D01*
X-4789202Y+1178268D01*
X-4798424Y+1167888D01*
X-4808919Y+1160200D01*
X-4819414Y+1155282D01*
X-4829909Y+1152476D01*
X-4840404Y+1151503D01*
X-4841000Y+1151500D01*
X-4841000Y+1278500D02*
X-4841000Y+1151500D01*
X-4904500Y+1215000D02*
X-4777500Y+1215000D01*
X-4777500Y+199000D02*
X-4777717Y+204247D01*
X-4779482Y+214742D01*
X-4783174Y+225237D01*
X-4789202Y+235732D01*
X-4798424Y+246112D01*
X-4808919Y+253800D01*
X-4819414Y+258718D01*
X-4829909Y+261524D01*
X-4840404Y+262497D01*
X-4841000Y+262500D01*
X-4904500Y+199000D02*
X-4904283Y+204247D01*
X-4902518Y+214742D01*
X-4898826Y+225237D01*
X-4892798Y+235732D01*
X-4883576Y+246112D01*
X-4873081Y+253800D01*
X-4862586Y+258718D01*
X-4852091Y+261524D01*
X-4841596Y+262497D01*
X-4841000Y+262500D01*
X-4904500Y+199000D02*
X-4904283Y+193753D01*
X-4902518Y+183258D01*
X-4898826Y+172763D01*
X-4892798Y+162268D01*
X-4883576Y+151888D01*
X-4873081Y+144200D01*
X-4862586Y+139282D01*
X-4852091Y+136476D01*
X-4841596Y+135503D01*
X-4841000Y+135500D01*
X-4777500Y+199000D02*
X-4777717Y+193753D01*
X-4779482Y+183258D01*
X-4783174Y+172763D01*
X-4789202Y+162268D01*
X-4798424Y+151888D01*
X-4808919Y+144200D01*
X-4819414Y+139282D01*
X-4829909Y+136476D01*
X-4840404Y+135503D01*
X-4841000Y+135500D01*
X-4841000Y+262500D02*
X-4841000Y+135500D01*
X-4904500Y+199000D02*
X-4777500Y+199000D01*
X-3770000Y-1421500D02*
X-3770000Y-1548500D01*
X-3833500Y-1485000D02*
X-3706500Y-1485000D01*
X-3814901Y-1440099D02*
X-3725099Y-1529901D01*
X-3814901Y-1529901D02*
X-3725099Y-1440099D01*
X-4786000Y-1421500D02*
X-4786000Y-1548500D01*
X-4849500Y-1485000D02*
X-4722500Y-1485000D01*
X-4830901Y-1440099D02*
X-4741099Y-1529901D01*
X-4830901Y-1529901D02*
X-4741099Y-1440099D01*
X-4802901Y-440099D02*
X-4713099Y-529901D01*
X-4802901Y-529901D02*
X-4713099Y-440099D01*
X-4929901Y-567099D02*
X-4840099Y-656901D01*
X-4929901Y-656901D02*
X-4840099Y-567099D01*
X-4802901Y-694099D02*
X-4713099Y-783901D01*
X-4802901Y-783901D02*
X-4713099Y-694099D01*
X-1985000Y+416500D02*
X-1985000Y+289500D01*
X-2048500Y+353000D02*
X-1921500Y+353000D01*
X-2029901Y+397901D02*
X-1940099Y+308099D01*
X-2029901Y+308099D02*
X-1940099Y+397901D01*
X-1985000Y+1432500D02*
X-1985000Y+1305500D01*
X-2048500Y+1369000D02*
X-1921500Y+1369000D01*
X-2029901Y+1413901D02*
X-1940099Y+1324099D01*
X-2029901Y+1324099D02*
X-1940099Y+1413901D01*
X-1436500Y+1750000D02*
X-1436717Y+1755247D01*
X-1438482Y+1765742D01*
X-1442174Y+1776237D01*
X-1448202Y+1786732D01*
X-1457424Y+1797112D01*
X-1467919Y+1804800D01*
X-1478414Y+1809718D01*
X-1488909Y+1812524D01*
X-1499404Y+1813497D01*
X-1500000Y+1813500D01*
X-1563500Y+1750000D02*
X-1563283Y+1755247D01*
X-1561518Y+1765742D01*
X-1557826Y+1776237D01*
X-1551798Y+1786732D01*
X-1542576Y+1797112D01*
X-1532081Y+1804800D01*
X-1521586Y+1809718D01*
X-1511091Y+1812524D01*
X-1500596Y+1813497D01*
X-1500000Y+1813500D01*
X-1563500Y+1750000D02*
X-1563283Y+1744753D01*
X-1561518Y+1734258D01*
X-1557826Y+1723763D01*
X-1551798Y+1713268D01*
X-1542576Y+1702888D01*
X-1532081Y+1695200D01*
X-1521586Y+1690282D01*
X-1511091Y+1687476D01*
X-1500596Y+1686503D01*
X-1500000Y+1686500D01*
X-1436500Y+1750000D02*
X-1436717Y+1744753D01*
X-1438482Y+1734258D01*
X-1442174Y+1723763D01*
X-1448202Y+1713268D01*
X-1457424Y+1702888D01*
X-1467919Y+1695200D01*
X-1478414Y+1690282D01*
X-1488909Y+1687476D01*
X-1499404Y+1686503D01*
X-1500000Y+1686500D01*
X-1500000Y+1813500D02*
X-1500000Y+1686500D01*
X-1563500Y+1750000D02*
X-1436500Y+1750000D01*
X-1436500Y+1496000D02*
X-1436717Y+1501247D01*
X-1438482Y+1511742D01*
X-1442174Y+1522237D01*
X-1448202Y+1532732D01*
X-1457424Y+1543112D01*
X-1467919Y+1550800D01*
X-1478414Y+1555718D01*
X-1488909Y+1558524D01*
X-1499404Y+1559497D01*
X-1500000Y+1559500D01*
X-1563500Y+1496000D02*
X-1563283Y+1501247D01*
X-1561518Y+1511742D01*
X-1557826Y+1522237D01*
X-1551798Y+1532732D01*
X-1542576Y+1543112D01*
X-1532081Y+1550800D01*
X-1521586Y+1555718D01*
X-1511091Y+1558524D01*
X-1500596Y+1559497D01*
X-1500000Y+1559500D01*
X-1563500Y+1496000D02*
X-1563283Y+1490753D01*
X-1561518Y+1480258D01*
X-1557826Y+1469763D01*
X-1551798Y+1459268D01*
X-1542576Y+1448888D01*
X-1532081Y+1441200D01*
X-1521586Y+1436282D01*
X-1511091Y+1433476D01*
X-1500596Y+1432503D01*
X-1500000Y+1432500D01*
X-1436500Y+1496000D02*
X-1436717Y+1490753D01*
X-1438482Y+1480258D01*
X-1442174Y+1469763D01*
X-1448202Y+1459268D01*
X-1457424Y+1448888D01*
X-1467919Y+1441200D01*
X-1478414Y+1436282D01*
X-1488909Y+1433476D01*
X-1499404Y+1432503D01*
X-1500000Y+1432500D01*
X-1500000Y+1559500D02*
X-1500000Y+1432500D01*
X-1563500Y+1496000D02*
X-1436500Y+1496000D01*
X-1436500Y+1242000D02*
X-1436717Y+1247247D01*
X-1438482Y+1257742D01*
X-1442174Y+1268237D01*
X-1448202Y+1278732D01*
X-1457424Y+1289112D01*
X-1467919Y+1296800D01*
X-1478414Y+1301718D01*
X-1488909Y+1304524D01*
X-1499404Y+1305497D01*
X-1500000Y+1305500D01*
X-1563500Y+1242000D02*
X-1563283Y+1247247D01*
X-1561518Y+1257742D01*
X-1557826Y+1268237D01*
X-1551798Y+1278732D01*
X-1542576Y+1289112D01*
X-1532081Y+1296800D01*
X-1521586Y+1301718D01*
X-1511091Y+1304524D01*
X-1500596Y+1305497D01*
X-1500000Y+1305500D01*
X-1563500Y+1242000D02*
X-1563283Y+1236753D01*
X-1561518Y+1226258D01*
X-1557826Y+1215763D01*
X-1551798Y+1205268D01*
X-1542576Y+1194888D01*
X-1532081Y+1187200D01*
X-1521586Y+1182282D01*
X-1511091Y+1179476D01*
X-1500596Y+1178503D01*
X-1500000Y+1178500D01*
X-1436500Y+1242000D02*
X-1436717Y+1236753D01*
X-1438482Y+1226258D01*
X-1442174Y+1215763D01*
X-1448202Y+1205268D01*
X-1457424Y+1194888D01*
X-1467919Y+1187200D01*
X-1478414Y+1182282D01*
X-1488909Y+1179476D01*
X-1499404Y+1178503D01*
X-1500000Y+1178500D01*
X-1500000Y+1305500D02*
X-1500000Y+1178500D01*
X-1563500Y+1242000D02*
X-1436500Y+1242000D01*
X-750000Y+2313500D02*
X-750000Y+2186500D01*
X-813500Y+2250000D02*
X-686500Y+2250000D01*
X-794901Y+2294901D02*
X-705099Y+2205099D01*
X-794901Y+2205099D02*
X-705099Y+2294901D01*
X-750000Y-1686500D02*
X-750000Y-1813500D01*
X-813500Y-1750000D02*
X-686500Y-1750000D01*
X-794901Y-1705099D02*
X-705099Y-1794901D01*
X-794901Y-1794901D02*
X-705099Y-1705099D01*
X-6500000Y-1686500D02*
X-6500000Y-1813500D01*
X-6563500Y-1750000D02*
X-6436500Y-1750000D01*
X-6544901Y-1705099D02*
X-6455099Y-1794901D01*
X-6544901Y-1794901D02*
X-6455099Y-1705099D01*
X-6500000Y+2313500D02*
X-6500000Y+2186500D01*
X-6563500Y+2250000D02*
X-6436500Y+2250000D01*
X-6544901Y+2294901D02*
X-6455099Y+2205099D01*
X-6544901Y+2205099D02*
X-6455099Y+2294901D01*
X-1500000Y+2063500D02*
X-1500000Y+1936500D01*
X-1563500Y+2000000D02*
X-1436500Y+2000000D01*
X-1544901Y+2044901D02*
X-1455099Y+1955099D01*
X-1544901Y+1955099D02*
X-1455099Y+2044901D01*
X-1743185Y+2127080D02*
X-1743185Y+2000080D01*
X-1806685Y+2063580D02*
X-1679685Y+2063580D01*
X-1788086Y+2108481D02*
X-1698284Y+2018679D01*
X-1788086Y+2018679D02*
X-1698284Y+2108481D01*
X-3936500Y-250000D02*
X-3936717Y-244753D01*
X-3938482Y-234258D01*
X-3942174Y-223763D01*
X-3948202Y-213268D01*
X-3957424Y-202888D01*
X-3967919Y-195200D01*
X-3978414Y-190282D01*
X-3988909Y-187476D01*
X-3999404Y-186503D01*
X-4000000Y-186500D01*
X-4063500Y-250000D02*
X-4063283Y-244753D01*
X-4061518Y-234258D01*
X-4057826Y-223763D01*
X-4051798Y-213268D01*
X-4042576Y-202888D01*
X-4032081Y-195200D01*
X-4021586Y-190282D01*
X-4011091Y-187476D01*
X-4000596Y-186503D01*
X-4000000Y-186500D01*
X-4063500Y-250000D02*
X-4063283Y-255247D01*
X-4061518Y-265742D01*
X-4057826Y-276237D01*
X-4051798Y-286732D01*
X-4042576Y-297112D01*
X-4032081Y-304800D01*
X-4021586Y-309718D01*
X-4011091Y-312524D01*
X-4000596Y-313497D01*
X-4000000Y-313500D01*
X-3936500Y-250000D02*
X-3936717Y-255247D01*
X-3938482Y-265742D01*
X-3942174Y-276237D01*
X-3948202Y-286732D01*
X-3957424Y-297112D01*
X-3967919Y-304800D01*
X-3978414Y-309718D01*
X-3988909Y-312524D01*
X-3999404Y-313497D01*
X-4000000Y-313500D01*
X-4000000Y-186500D02*
X-4000000Y-313500D01*
X-4063500Y-250000D02*
X-3936500Y-250000D01*
X-4190500Y-250000D02*
X-4190717Y-244753D01*
X-4192482Y-234258D01*
X-4196174Y-223763D01*
X-4202202Y-213268D01*
X-4211424Y-202888D01*
X-4221919Y-195200D01*
X-4232414Y-190282D01*
X-4242909Y-187476D01*
X-4253404Y-186503D01*
X-4254000Y-186500D01*
X-4317500Y-250000D02*
X-4317283Y-244753D01*
X-4315518Y-234258D01*
X-4311826Y-223763D01*
X-4305798Y-213268D01*
X-4296576Y-202888D01*
X-4286081Y-195200D01*
X-4275586Y-190282D01*
X-4265091Y-187476D01*
X-4254596Y-186503D01*
X-4254000Y-186500D01*
X-4317500Y-250000D02*
X-4317283Y-255247D01*
X-4315518Y-265742D01*
X-4311826Y-276237D01*
X-4305798Y-286732D01*
X-4296576Y-297112D01*
X-4286081Y-304800D01*
X-4275586Y-309718D01*
X-4265091Y-312524D01*
X-4254596Y-313497D01*
X-4254000Y-313500D01*
X-4190500Y-250000D02*
X-4190717Y-255247D01*
X-4192482Y-265742D01*
X-4196174Y-276237D01*
X-4202202Y-286732D01*
X-4211424Y-297112D01*
X-4221919Y-304800D01*
X-4232414Y-309718D01*
X-4242909Y-312524D01*
X-4253404Y-313497D01*
X-4254000Y-313500D01*
X-4254000Y-186500D02*
X-4254000Y-313500D01*
X-4317500Y-250000D02*
X-4190500Y-250000D01*
D19*
X-6760160Y-3508760D02*
X-4116020Y-3508760D01*
X-4116020Y-2264160D01*
X-6760160Y-2264160D01*
X-6760160Y-3508760D01*
D70*
X-6292798Y-2264160D02*
X-6292798Y-3508760D01*
X-5479998Y-2264160D02*
X-5479998Y-3508760D01*
X-4646878Y-2264160D02*
X-4646878Y-3508760D01*
X-6760160Y-2537210D02*
X-4116020Y-2537210D01*
X-6760160Y-2778510D02*
X-4116020Y-2778510D01*
X-6760160Y-3019810D02*
X-4116020Y-3019810D01*
X-6760160Y-3261110D02*
X-4116020Y-3261110D01*
D19*
X-6703010Y-2427990D02*
X-6687770Y-2443230D01*
X-6626810Y-2443230D01*
X-6611570Y-2427990D01*
X-6611570Y-2412750D01*
X-6626810Y-2397510D01*
X-6687770Y-2397510D01*
X-6703010Y-2382270D01*
X-6703010Y-2367030D01*
X-6687770Y-2351790D01*
X-6626810Y-2351790D01*
X-6611570Y-2367030D01*
X-6489650Y-2351790D02*
X-6581090Y-2443230D01*
X-6581090Y-2351790D02*
X-6535370Y-2397510D01*
X-6459170Y-2443230D02*
X-6459170Y-2351790D01*
X-6413450Y-2397510D01*
X-6367730Y-2351790D01*
X-6367730Y-2443230D01*
X-6235650Y-2427990D02*
X-6220410Y-2443230D01*
X-6159450Y-2443230D01*
X-6144210Y-2427990D01*
X-6144210Y-2412750D01*
X-6159450Y-2397510D01*
X-6220410Y-2397510D01*
X-6235650Y-2382270D01*
X-6235650Y-2367030D01*
X-6220410Y-2351790D01*
X-6159450Y-2351790D01*
X-6144210Y-2367030D01*
X-6098490Y-2351790D02*
X-6037530Y-2351790D01*
X-6068010Y-2351790D02*
X-6068010Y-2443230D01*
X-6098490Y-2443230D02*
X-6037530Y-2443230D01*
X-5991810Y-2351790D02*
X-5900370Y-2351790D01*
X-5991810Y-2443230D01*
X-5900370Y-2443230D01*
X-5778450Y-2443230D02*
X-5869890Y-2443230D01*
X-5869890Y-2351790D01*
X-5778450Y-2351790D01*
X-5869890Y-2397510D02*
X-5808930Y-2397510D01*
X-5422850Y-2443230D02*
X-5422850Y-2351790D01*
X-5346650Y-2351790D01*
X-5331410Y-2367030D01*
X-5331410Y-2382270D01*
X-5346650Y-2397510D01*
X-5422850Y-2397510D01*
X-5300930Y-2351790D02*
X-5300930Y-2443230D01*
X-5209490Y-2443230D01*
X-5179010Y-2443230D02*
X-5179010Y-2382270D01*
X-5148530Y-2351790D01*
X-5118050Y-2351790D01*
X-5087570Y-2382270D01*
X-5087570Y-2443230D01*
X-5179010Y-2412750D02*
X-5087570Y-2412750D01*
X-5057090Y-2351790D02*
X-4965650Y-2351790D01*
X-5011370Y-2351790D02*
X-5011370Y-2443230D01*
X-4843730Y-2443230D02*
X-4935170Y-2443230D01*
X-4935170Y-2351790D01*
X-4843730Y-2351790D01*
X-4935170Y-2397510D02*
X-4874210Y-2397510D01*
X-4813250Y-2443230D02*
X-4813250Y-2351790D01*
X-4752290Y-2351790D01*
X-4721810Y-2382270D01*
X-4721810Y-2412750D01*
X-4752290Y-2443230D01*
X-4813250Y-2443230D01*
X-4589730Y-2382270D02*
X-4559250Y-2351790D01*
X-4528770Y-2351790D01*
X-4498290Y-2382270D01*
X-4498290Y-2412750D01*
X-4528770Y-2443230D01*
X-4559250Y-2443230D01*
X-4589730Y-2412750D01*
X-4589730Y-2382270D01*
X-4528770Y-2412750D02*
X-4498290Y-2443230D01*
X-4467810Y-2351790D02*
X-4376370Y-2351790D01*
X-4422090Y-2351790D02*
X-4422090Y-2443230D01*
X-4254450Y-2351790D02*
X-4345890Y-2443230D01*
X-4345890Y-2351790D02*
X-4300170Y-2397510D01*
D18*
X-6513780Y-2588010D02*
X-6513780Y-2715010D01*
X-6577280Y-2651510D02*
X-6450280Y-2651510D01*
D19*
X-6216600Y-2676910D02*
X-6216600Y-2626110D01*
X-6203900Y-2613410D01*
X-6153100Y-2613410D01*
X-6140400Y-2626110D01*
X-6140400Y-2676910D01*
X-6153100Y-2689610D01*
X-6203900Y-2689610D01*
X-6216600Y-2676910D01*
X-6216600Y-2689610D02*
X-6140400Y-2613410D01*
X-6076900Y-2676910D02*
X-6064200Y-2676910D01*
X-6064200Y-2689610D01*
X-6076900Y-2689610D01*
X-6076900Y-2676910D01*
X-6000700Y-2626110D02*
X-5988000Y-2613410D01*
X-5949900Y-2613410D01*
X-5937200Y-2626110D01*
X-5937200Y-2638810D01*
X-5949900Y-2651510D01*
X-5937200Y-2664210D01*
X-5937200Y-2676910D01*
X-5949900Y-2689610D01*
X-5988000Y-2689610D01*
X-6000700Y-2676910D01*
X-5975300Y-2651510D02*
X-5949900Y-2651510D01*
X-5886400Y-2651510D02*
X-5899100Y-2638810D01*
X-5899100Y-2626110D01*
X-5886400Y-2613410D01*
X-5848300Y-2613410D01*
X-5835600Y-2626110D01*
X-5835600Y-2638810D01*
X-5848300Y-2651510D01*
X-5886400Y-2651510D01*
X-5899100Y-2664210D01*
X-5899100Y-2676910D01*
X-5886400Y-2689610D01*
X-5848300Y-2689610D01*
X-5835600Y-2676910D01*
X-5835600Y-2664210D01*
X-5848300Y-2651510D01*
X-5784800Y-2638810D02*
X-5759400Y-2613410D01*
X-5759400Y-2689610D01*
X-5708600Y-2689610D02*
X-5708600Y-2638810D01*
X-5708600Y-2651510D02*
X-5695900Y-2638810D01*
X-5670500Y-2664210D01*
X-5645100Y-2638810D01*
X-5632400Y-2651510D01*
X-5632400Y-2689610D01*
X-5607000Y-2689610D02*
X-5607000Y-2638810D01*
X-5607000Y-2651510D02*
X-5594300Y-2638810D01*
X-5568900Y-2664210D01*
X-5543500Y-2638810D01*
X-5530800Y-2651510D01*
X-5530800Y-2689610D01*
X-5314900Y-2613410D02*
X-5391100Y-2689610D01*
X-5391100Y-2613410D02*
X-5353000Y-2651510D01*
X-5213300Y-2689610D02*
X-5289500Y-2689610D01*
X-5289500Y-2613410D01*
X-5213300Y-2613410D01*
X-5289500Y-2651510D02*
X-5238700Y-2651510D01*
X-5187900Y-2676910D02*
X-5175200Y-2689610D01*
X-5124400Y-2689610D01*
X-5111700Y-2676910D01*
X-5111700Y-2664210D01*
X-5124400Y-2651510D01*
X-5175200Y-2651510D01*
X-5187900Y-2638810D01*
X-5187900Y-2626110D01*
X-5175200Y-2613410D01*
X-5124400Y-2613410D01*
X-5111700Y-2626110D01*
X-4519880Y-2638810D02*
X-4494480Y-2613410D01*
X-4494480Y-2689610D01*
D18*
X-6558681Y-2847909D02*
X-6468879Y-2937711D01*
X-6558681Y-2937711D02*
X-6468879Y-2847909D01*
D19*
X-6216600Y-2918210D02*
X-6216600Y-2867410D01*
X-6203900Y-2854710D01*
X-6153100Y-2854710D01*
X-6140400Y-2867410D01*
X-6140400Y-2918210D01*
X-6153100Y-2930910D01*
X-6203900Y-2930910D01*
X-6216600Y-2918210D01*
X-6216600Y-2930910D02*
X-6140400Y-2854710D01*
X-6076900Y-2918210D02*
X-6064200Y-2918210D01*
X-6064200Y-2930910D01*
X-6076900Y-2930910D01*
X-6076900Y-2918210D01*
X-5937200Y-2867410D02*
X-5949900Y-2854710D01*
X-5988000Y-2854710D01*
X-6000700Y-2867410D01*
X-6000700Y-2918210D01*
X-5988000Y-2930910D01*
X-5949900Y-2930910D01*
X-5937200Y-2918210D01*
X-5937200Y-2905510D01*
X-5949900Y-2892810D01*
X-6000700Y-2892810D01*
X-5899100Y-2867410D02*
X-5886400Y-2854710D01*
X-5848300Y-2854710D01*
X-5835600Y-2867410D01*
X-5835600Y-2880110D01*
X-5848300Y-2892810D01*
X-5835600Y-2905510D01*
X-5835600Y-2918210D01*
X-5848300Y-2930910D01*
X-5886400Y-2930910D01*
X-5899100Y-2918210D01*
X-5873700Y-2892810D02*
X-5848300Y-2892810D01*
X-5734000Y-2854710D02*
X-5797500Y-2854710D01*
X-5797500Y-2880110D01*
X-5746700Y-2880110D01*
X-5734000Y-2892810D01*
X-5734000Y-2918210D01*
X-5746700Y-2930910D01*
X-5784800Y-2930910D01*
X-5797500Y-2918210D01*
X-5708600Y-2930910D02*
X-5708600Y-2880110D01*
X-5708600Y-2892810D02*
X-5695900Y-2880110D01*
X-5670500Y-2905510D01*
X-5645100Y-2880110D01*
X-5632400Y-2892810D01*
X-5632400Y-2930910D01*
X-5607000Y-2930910D02*
X-5607000Y-2880110D01*
X-5607000Y-2892810D02*
X-5594300Y-2880110D01*
X-5568900Y-2905510D01*
X-5543500Y-2880110D01*
X-5530800Y-2892810D01*
X-5530800Y-2930910D01*
X-5314900Y-2854710D02*
X-5391100Y-2930910D01*
X-5391100Y-2854710D02*
X-5353000Y-2892810D01*
X-5213300Y-2930910D02*
X-5289500Y-2930910D01*
X-5289500Y-2854710D01*
X-5213300Y-2854710D01*
X-5289500Y-2892810D02*
X-5238700Y-2892810D01*
X-5187900Y-2918210D02*
X-5175200Y-2930910D01*
X-5124400Y-2930910D01*
X-5111700Y-2918210D01*
X-5111700Y-2905510D01*
X-5124400Y-2892810D01*
X-5175200Y-2892810D01*
X-5187900Y-2880110D01*
X-5187900Y-2867410D01*
X-5175200Y-2854710D01*
X-5124400Y-2854710D01*
X-5111700Y-2867410D01*
X-4532580Y-2867410D02*
X-4519880Y-2854710D01*
X-4481780Y-2854710D01*
X-4469080Y-2867410D01*
X-4469080Y-2880110D01*
X-4481780Y-2892810D01*
X-4469080Y-2905510D01*
X-4469080Y-2918210D01*
X-4481780Y-2930910D01*
X-4519880Y-2930910D01*
X-4532580Y-2918210D01*
X-4507180Y-2892810D02*
X-4481780Y-2892810D01*
D18*
X-6513780Y-3070610D02*
X-6513780Y-3197610D01*
X-6577280Y-3134110D02*
X-6450280Y-3134110D01*
X-6558681Y-3089209D02*
X-6468879Y-3179011D01*
X-6558681Y-3179011D02*
X-6468879Y-3089209D01*
D19*
X-6216600Y-3159510D02*
X-6216600Y-3108710D01*
X-6203900Y-3096010D01*
X-6153100Y-3096010D01*
X-6140400Y-3108710D01*
X-6140400Y-3159510D01*
X-6153100Y-3172210D01*
X-6203900Y-3172210D01*
X-6216600Y-3159510D01*
X-6216600Y-3172210D02*
X-6140400Y-3096010D01*
X-6076900Y-3159510D02*
X-6064200Y-3159510D01*
X-6064200Y-3172210D01*
X-6076900Y-3172210D01*
X-6076900Y-3159510D01*
X-6000700Y-3096010D02*
X-5937200Y-3096010D01*
X-5937200Y-3108710D01*
X-6000700Y-3172210D01*
X-5835600Y-3108710D02*
X-5848300Y-3096010D01*
X-5886400Y-3096010D01*
X-5899100Y-3108710D01*
X-5899100Y-3159510D01*
X-5886400Y-3172210D01*
X-5848300Y-3172210D01*
X-5835600Y-3159510D01*
X-5835600Y-3146810D01*
X-5848300Y-3134110D01*
X-5899100Y-3134110D01*
X-5797500Y-3108710D02*
X-5784800Y-3096010D01*
X-5746700Y-3096010D01*
X-5734000Y-3108710D01*
X-5734000Y-3121410D01*
X-5746700Y-3134110D01*
X-5784800Y-3134110D01*
X-5797500Y-3146810D01*
X-5797500Y-3172210D01*
X-5734000Y-3172210D01*
X-5708600Y-3172210D02*
X-5708600Y-3121410D01*
X-5708600Y-3134110D02*
X-5695900Y-3121410D01*
X-5670500Y-3146810D01*
X-5645100Y-3121410D01*
X-5632400Y-3134110D01*
X-5632400Y-3172210D01*
X-5607000Y-3172210D02*
X-5607000Y-3121410D01*
X-5607000Y-3134110D02*
X-5594300Y-3121410D01*
X-5568900Y-3146810D01*
X-5543500Y-3121410D01*
X-5530800Y-3134110D01*
X-5530800Y-3172210D01*
X-5314900Y-3096010D02*
X-5391100Y-3172210D01*
X-5391100Y-3096010D02*
X-5353000Y-3134110D01*
X-5213300Y-3172210D02*
X-5289500Y-3172210D01*
X-5289500Y-3096010D01*
X-5213300Y-3096010D01*
X-5289500Y-3134110D02*
X-5238700Y-3134110D01*
X-5187900Y-3159510D02*
X-5175200Y-3172210D01*
X-5124400Y-3172210D01*
X-5111700Y-3159510D01*
X-5111700Y-3146810D01*
X-5124400Y-3134110D01*
X-5175200Y-3134110D01*
X-5187900Y-3121410D01*
X-5187900Y-3108710D01*
X-5175200Y-3096010D01*
X-5124400Y-3096010D01*
X-5111700Y-3108710D01*
X-4532580Y-3108710D02*
X-4519880Y-3096010D01*
X-4481780Y-3096010D01*
X-4469080Y-3108710D01*
X-4469080Y-3121410D01*
X-4481780Y-3134110D01*
X-4469080Y-3146810D01*
X-4469080Y-3159510D01*
X-4481780Y-3172210D01*
X-4519880Y-3172210D01*
X-4532580Y-3159510D01*
X-4507180Y-3134110D02*
X-4481780Y-3134110D01*
X-4367480Y-3146810D02*
X-4443680Y-3146810D01*
X-4392880Y-3096010D01*
X-4392880Y-3172210D01*
D18*
X-6450280Y-3375410D02*
X-6450497Y-3370163D01*
X-6452262Y-3359668D01*
X-6455954Y-3349173D01*
X-6461982Y-3338678D01*
X-6471204Y-3328298D01*
X-6481699Y-3320610D01*
X-6492194Y-3315692D01*
X-6502689Y-3312886D01*
X-6513184Y-3311913D01*
X-6513780Y-3311910D01*
X-6577280Y-3375410D02*
X-6577063Y-3370163D01*
X-6575298Y-3359668D01*
X-6571606Y-3349173D01*
X-6565578Y-3338678D01*
X-6556356Y-3328298D01*
X-6545861Y-3320610D01*
X-6535366Y-3315692D01*
X-6524871Y-3312886D01*
X-6514376Y-3311913D01*
X-6513780Y-3311910D01*
X-6577280Y-3375410D02*
X-6577063Y-3380657D01*
X-6575298Y-3391152D01*
X-6571606Y-3401647D01*
X-6565578Y-3412142D01*
X-6556356Y-3422522D01*
X-6545861Y-3430210D01*
X-6535366Y-3435128D01*
X-6524871Y-3437934D01*
X-6514376Y-3438907D01*
X-6513780Y-3438910D01*
X-6450280Y-3375410D02*
X-6450497Y-3380657D01*
X-6452262Y-3391152D01*
X-6455954Y-3401647D01*
X-6461982Y-3412142D01*
X-6471204Y-3422522D01*
X-6481699Y-3430210D01*
X-6492194Y-3435128D01*
X-6502689Y-3437934D01*
X-6513184Y-3438907D01*
X-6513780Y-3438910D01*
X-6513780Y-3311910D02*
X-6513780Y-3438910D01*
X-6577280Y-3375410D02*
X-6450280Y-3375410D01*
D19*
X-6191200Y-3362710D02*
X-6165800Y-3337310D01*
X-6165800Y-3413510D01*
X-6076900Y-3400810D02*
X-6064200Y-3400810D01*
X-6064200Y-3413510D01*
X-6076900Y-3413510D01*
X-6076900Y-3400810D01*
X-6013400Y-3400810D02*
X-6013400Y-3350010D01*
X-6000700Y-3337310D01*
X-5949900Y-3337310D01*
X-5937200Y-3350010D01*
X-5937200Y-3400810D01*
X-5949900Y-3413510D01*
X-6000700Y-3413510D01*
X-6013400Y-3400810D01*
X-6013400Y-3413510D02*
X-5937200Y-3337310D01*
X-5886400Y-3362710D02*
X-5861000Y-3337310D01*
X-5861000Y-3413510D01*
X-5734000Y-3350010D02*
X-5746700Y-3337310D01*
X-5784800Y-3337310D01*
X-5797500Y-3350010D01*
X-5797500Y-3400810D01*
X-5784800Y-3413510D01*
X-5746700Y-3413510D01*
X-5734000Y-3400810D01*
X-5734000Y-3388110D01*
X-5746700Y-3375410D01*
X-5797500Y-3375410D01*
X-5708600Y-3413510D02*
X-5708600Y-3362710D01*
X-5708600Y-3375410D02*
X-5695900Y-3362710D01*
X-5670500Y-3388110D01*
X-5645100Y-3362710D01*
X-5632400Y-3375410D01*
X-5632400Y-3413510D01*
X-5607000Y-3413510D02*
X-5607000Y-3362710D01*
X-5607000Y-3375410D02*
X-5594300Y-3362710D01*
X-5568900Y-3388110D01*
X-5543500Y-3362710D01*
X-5530800Y-3375410D01*
X-5530800Y-3413510D01*
X-5314900Y-3337310D02*
X-5391100Y-3413510D01*
X-5391100Y-3337310D02*
X-5353000Y-3375410D01*
X-5213300Y-3413510D02*
X-5289500Y-3413510D01*
X-5289500Y-3337310D01*
X-5213300Y-3337310D01*
X-5289500Y-3375410D02*
X-5238700Y-3375410D01*
X-5187900Y-3400810D02*
X-5175200Y-3413510D01*
X-5124400Y-3413510D01*
X-5111700Y-3400810D01*
X-5111700Y-3388110D01*
X-5124400Y-3375410D01*
X-5175200Y-3375410D01*
X-5187900Y-3362710D01*
X-5187900Y-3350010D01*
X-5175200Y-3337310D01*
X-5124400Y-3337310D01*
X-5111700Y-3350010D01*
X-4532580Y-3337310D02*
X-4469080Y-3337310D01*
X-4469080Y-3350010D01*
X-4532580Y-3413510D01*
M02*
