M48
METRIC,TZ
T01C0.3810
T02C0.7620
T03C1.0160
T04C0.6350
%
T01
X-37465Y-6985
T02
X-33410Y+3370
X-30870Y+3370
X-28330Y+3370
X-25790Y+3370
X-25790Y+10990
X-28330Y+10990
X-30870Y+10990
X-33410Y+10990
X-33250Y-11790
X-30710Y-11790
X-28170Y-11790
X-25630Y-11790
X-25630Y-4170
X-28170Y-4170
X-30710Y-4170
X-33250Y-4170
X-35000Y+15000
X-35000Y+17540
X-42300Y+13380
X-42300Y+3220
X-19810Y-2300
X-19810Y-12460
X-55230Y+3450
X-59040Y+3450
X-37700Y-14850
X-47860Y-14850
X-19850Y+3530
X-19850Y+13690
X-7500Y+22500
X-7500Y-17500
X-65000Y-17500
X-65000Y+22500
X-15000Y+20000
X-17432Y+20636
T03
X-48410Y+12150
X-48410Y+1990
X-15000Y+17500
X-15000Y+14960
X-15000Y+12420
X-40000Y-2500
X-42540Y-2500
T04
X-47580Y-4850
X-48850Y-6120
X-47580Y-7390
M30
