G04 PROTEUS RS274X GERBER FILE*
%FSLAX45Y45*%
%MOMM*%
G01*
%ADD10C,0.762000*%
%ADD11C,0.762000*%
%ADD12R,1.270000X1.270000*%
%ADD13C,1.270000*%
%ADD14C,2.032000*%
%ADD15C,1.778000*%
%ADD16C,2.286000*%
%ADD17R,2.032000X2.032000*%
D10*
X-3746500Y-698500D02*
X-4000000Y-445000D01*
X-4000000Y-250000D01*
X-2833000Y+337000D02*
X-2833000Y+127000D01*
X-2413000Y-293000D01*
X-2413000Y-1029000D01*
X-2563000Y-1179000D01*
X-4230000Y+1338000D02*
X-4841000Y+727000D01*
X-4841000Y+199000D01*
X-2833000Y+1099000D02*
X-2833000Y+1587500D01*
X-2999500Y+1754000D01*
X-3500000Y+1754000D01*
X-2833000Y+1099000D02*
X-2833000Y+591000D01*
X-3087000Y+337000D01*
X-2159000Y-1206500D02*
X-2159000Y+179000D01*
X-1985000Y+353000D01*
X-2159000Y-1206500D02*
X-2159000Y-1333500D01*
X-2286000Y-1460500D01*
X-2535500Y-1460500D01*
X-2817000Y-1179000D01*
X-2032000Y-1206500D02*
X-2159000Y-1206500D01*
X-2032000Y-1206500D02*
X-1981000Y-1206500D01*
X-1981000Y-1246000D01*
X-2817000Y-417000D02*
X-2817000Y-635000D01*
X-3071000Y-889000D01*
X-3071000Y-1179000D01*
X-1500000Y+1750000D02*
X-1500000Y+2000000D01*
X-5523000Y+345000D02*
X-5523000Y-748000D01*
X-4786000Y-1485000D01*
X-5523000Y+345000D02*
X-5523000Y+533000D01*
X-4841000Y+1215000D01*
X-4758000Y-485000D02*
X-4445000Y-485000D01*
X-4104500Y-825500D01*
X-3492500Y-825500D01*
X-3365500Y-698500D01*
X-3341000Y+337000D02*
X-3492500Y+185500D01*
X-3492500Y-571500D01*
X-3365500Y-698500D01*
X-3325000Y-739000D01*
X-3325000Y-1179000D01*
X-1963093Y+1578795D02*
X-1963093Y+1846808D01*
X-1743185Y+2066716D01*
X-1746321Y+2066716D01*
X-1743185Y+2063580D01*
X-3500000Y+1500000D02*
X-3505404Y+1494596D01*
X-3824825Y+1494596D01*
X-4007255Y+1677026D01*
X-4007255Y+1817359D01*
X-3848213Y+1976401D01*
X-2360699Y+1976401D01*
X-1963093Y+1578795D01*
X-1582795Y+1578795D01*
X-1500000Y+1496000D01*
X-3341000Y+337000D02*
X-3500000Y+496000D01*
X-3500000Y+1500000D01*
X-4254000Y-250000D02*
X-5083383Y-250000D01*
X-5269515Y-436132D01*
X-5269515Y-746247D01*
X-5107073Y-908689D01*
X-4927403Y-908689D01*
X-4922480Y-913612D01*
X-4758000Y-749132D01*
X-4758000Y-739000D01*
X-1500000Y+1242000D02*
X-1500000Y+992271D01*
X-1672621Y+819650D01*
X-1887164Y+819650D01*
X-2377902Y+328912D01*
X-2570912Y+328912D01*
X-2579000Y+337000D01*
D11*
X-3746500Y-698500D03*
D12*
X-3341000Y+337000D03*
D13*
X-3087000Y+337000D03*
X-2833000Y+337000D03*
X-2579000Y+337000D03*
X-2579000Y+1099000D03*
X-2833000Y+1099000D03*
X-3087000Y+1099000D03*
X-3341000Y+1099000D03*
D12*
X-3325000Y-1179000D03*
D13*
X-3071000Y-1179000D03*
X-2817000Y-1179000D03*
X-2563000Y-1179000D03*
X-2563000Y-417000D03*
X-2817000Y-417000D03*
X-3071000Y-417000D03*
X-3325000Y-417000D03*
D14*
X-3500000Y+1500000D03*
X-3500000Y+1754000D03*
D15*
X-4230000Y+1338000D03*
X-4230000Y+322000D03*
X-1981000Y-230000D03*
X-1981000Y-1246000D03*
X-5523000Y+345000D03*
X-5904000Y+345000D03*
D16*
X-4841000Y+1215000D03*
X-4841000Y+199000D03*
D15*
X-3770000Y-1485000D03*
X-4786000Y-1485000D03*
D13*
X-4758000Y-485000D03*
X-4885000Y-612000D03*
X-4758000Y-739000D03*
D15*
X-1985000Y+353000D03*
X-1985000Y+1369000D03*
D17*
X-1500000Y+1750000D03*
X-1500000Y+1496000D03*
X-1500000Y+1242000D03*
D15*
X-750000Y+2250000D03*
X-750000Y-1750000D03*
X-6500000Y-1750000D03*
X-6500000Y+2250000D03*
X-1500000Y+2000000D03*
X-1743185Y+2063580D03*
D17*
X-4000000Y-250000D03*
X-4254000Y-250000D03*
M02*
