G04 PROTEUS RS274X GERBER FILE*
%FSLAX45Y45*%
%MOMM*%
G01*
%ADD10C,0.762000*%
%ADD11C,0.762000*%
%ADD12R,1.270000X1.270000*%
%ADD13C,1.270000*%
%ADD14C,2.032000*%
%ADD15C,1.778000*%
%ADD16C,2.286000*%
%ADD17R,2.032000X2.032000*%
D10*
X-3325000Y-417000D02*
X-3606500Y-698500D01*
X-3746500Y-698500D01*
X-2579000Y+337000D02*
X-2577978Y+273500D01*
X-2577978Y+37630D01*
X-2686420Y-70812D01*
X-2978812Y-70812D01*
X-3325000Y-417000D01*
X-2579000Y+337000D02*
X-2577978Y+335978D01*
X-2350441Y+335978D01*
X-2350441Y+349418D01*
X-2184692Y+515167D01*
X-2184692Y+1267760D01*
X-2207091Y+1267760D01*
X-2301165Y+1361834D01*
X-3003641Y+1361834D01*
X-3266475Y+1099000D01*
X-3341000Y+1099000D01*
X-2833000Y+337000D02*
X-2833000Y+295550D01*
X-3079790Y+66492D01*
X-3974492Y+66492D01*
X-4230000Y+322000D01*
X-3500000Y+1754000D02*
X-3814000Y+1754000D01*
X-4230000Y+1338000D01*
X-2817000Y-417000D02*
X-2630000Y-230000D01*
X-1981000Y-230000D01*
X-4885000Y-612000D02*
X-5042751Y-454249D01*
X-5042751Y-179188D01*
X-4854604Y+8959D01*
X-4630617Y+8959D01*
X-4393192Y+246384D01*
X-4393192Y+904902D01*
X-3972098Y+1325996D01*
X-3286701Y+1325996D01*
X-2914884Y+1697813D01*
X-2811852Y+1697813D01*
X-2256368Y+1697813D01*
X-2202611Y+1644056D01*
X-1985000Y+1426445D01*
X-1985000Y+1369000D01*
X-4758000Y-485000D02*
X-4572000Y-485000D01*
X-4445000Y-612000D01*
X-4445000Y-889000D01*
X-4572000Y-1016000D01*
X-5715000Y-1016000D01*
X-5904000Y-827000D01*
X-5904000Y+345000D01*
X-3746500Y-698500D02*
X-3770000Y-1230000D01*
X-3770000Y-1485000D01*
D11*
X-3746500Y-698500D03*
D12*
X-3341000Y+337000D03*
D13*
X-3087000Y+337000D03*
X-2833000Y+337000D03*
X-2579000Y+337000D03*
X-2579000Y+1099000D03*
X-2833000Y+1099000D03*
X-3087000Y+1099000D03*
X-3341000Y+1099000D03*
D12*
X-3325000Y-1179000D03*
D13*
X-3071000Y-1179000D03*
X-2817000Y-1179000D03*
X-2563000Y-1179000D03*
X-2563000Y-417000D03*
X-2817000Y-417000D03*
X-3071000Y-417000D03*
X-3325000Y-417000D03*
D14*
X-3500000Y+1500000D03*
X-3500000Y+1754000D03*
D15*
X-4230000Y+1338000D03*
X-4230000Y+322000D03*
X-1981000Y-230000D03*
X-1981000Y-1246000D03*
X-5523000Y+345000D03*
X-5904000Y+345000D03*
D16*
X-4841000Y+1215000D03*
X-4841000Y+199000D03*
D15*
X-3770000Y-1485000D03*
X-4786000Y-1485000D03*
D13*
X-4758000Y-485000D03*
X-4885000Y-612000D03*
X-4758000Y-739000D03*
D15*
X-1985000Y+353000D03*
X-1985000Y+1369000D03*
D17*
X-1500000Y+1750000D03*
X-1500000Y+1496000D03*
X-1500000Y+1242000D03*
D15*
X-750000Y+2250000D03*
X-750000Y-1750000D03*
X-6500000Y-1750000D03*
X-6500000Y+2250000D03*
X-1500000Y+2000000D03*
X-1743185Y+2063580D03*
D17*
X-4000000Y-250000D03*
X-4254000Y-250000D03*
M02*
